<?xml version="1.0" encoding="utf-8"?>
<!-- Generator: Adobe Illustrator 19.1.0, SVG Export Plug-In . SVG Version: 6.00 Build 0)  -->
<svg version="1.1" id="Layer_1" xmlns="http://www.w3.org/2000/svg" xmlns:xlink="http://www.w3.org/1999/xlink" x="0px" y="0px"
	 viewBox="0 0 24 24" style="enable-background:new 0 0 24 24;" xml:space="preserve">
<metadata><?xpacket begin="﻿" id="W5M0MpCehiHzreSzNTczkc9d"?>
<x:xmpmeta xmlns:x="adobe:ns:meta/" x:xmptk="Adobe XMP Core 5.6-c067 79.157747, 2015/03/30-23:40:42        ">
   <rdf:RDF xmlns:rdf="http://www.w3.org/1999/02/22-rdf-syntax-ns#">
      <rdf:Description rdf:about=""/>
   </rdf:RDF>
</x:xmpmeta>
                                                                                                    
                                                                                                    
                                                                                                    
                                                                                                    
                                                                                                    
                                                                                                    
                                                                                                    
                                                                                                    
                                                                                                    
                                                                                                    
                                                                                                    
                                                                                                    
                                                                                                    
                                                                                                    
                                                                                                    
                                                                                                    
                                                                                                    
                                                                                                    
                                                                                                    
                                                                                                    
                           
<?xpacket end="w"?></metadata>
<style type="text/css">
	.st0{fill:none;stroke:#FFFFFF;stroke-width:0.9987;stroke-linecap:round;stroke-linejoin:round;stroke-miterlimit:10;}
</style>
<g>
	<path class="st0" d="M10,5c0-0.3-0.3-0.6-0.6-0.6H5C4.7,4.4,4.5,4.7,4.5,5v4.4C4.5,9.7,4.7,10,5,10h4.4C9.7,10,10,9.7,10,9.4V5z"/>
	<line class="st0" x1="19.3" y1="6.1" x2="12.5" y2="6.1"/>
	<line class="st0" x1="19.3" y1="8.4" x2="12.5" y2="8.4"/>
	<path class="st0" d="M10,14.5c0-0.3-0.3-0.6-0.6-0.6H5c-0.3,0-0.6,0.3-0.6,0.6v4.4c0,0.3,0.3,0.6,0.6,0.6h4.4
		c0.3,0,0.6-0.3,0.6-0.6V14.5z"/>
	<line class="st0" x1="19.3" y1="15.6" x2="12.5" y2="15.6"/>
	<line class="st0" x1="19.3" y1="18" x2="12.5" y2="18"/>
	<path class="st0" d="M21.1,23.5H2.9c-1.3,0-2.4-1.1-2.4-2.4V2.9c0-1.3,1.1-2.4,2.4-2.4h18.2c1.3,0,2.4,1.1,2.4,2.4v18.2
		C23.5,22.4,22.4,23.5,21.1,23.5z"/>
</g>
</svg>
