<?xml version="1.0" encoding="utf-8"?>
<!-- Generator: Adobe Illustrator 19.1.0, SVG Export Plug-In . SVG Version: 6.00 Build 0)  -->
<svg version="1.1" id="Layer_1" xmlns="http://www.w3.org/2000/svg" xmlns:xlink="http://www.w3.org/1999/xlink" x="0px" y="0px"
	 viewBox="0 0 25 24" style="enable-background:new 0 0 25 24;" xml:space="preserve">
<metadata><?xpacket begin="﻿" id="W5M0MpCehiHzreSzNTczkc9d"?>
<x:xmpmeta xmlns:x="adobe:ns:meta/" x:xmptk="Adobe XMP Core 5.6-c067 79.157747, 2015/03/30-23:40:42        ">
   <rdf:RDF xmlns:rdf="http://www.w3.org/1999/02/22-rdf-syntax-ns#">
      <rdf:Description rdf:about=""/>
   </rdf:RDF>
</x:xmpmeta>
                                                                                                    
                                                                                                    
                                                                                                    
                                                                                                    
                                                                                                    
                                                                                                    
                                                                                                    
                                                                                                    
                                                                                                    
                                                                                                    
                                                                                                    
                                                                                                    
                                                                                                    
                                                                                                    
                                                                                                    
                                                                                                    
                                                                                                    
                                                                                                    
                                                                                                    
                                                                                                    
                           
<?xpacket end="w"?></metadata>
<style type="text/css">
	.st0{fill:#FFFFFF;}
</style>
<g>
	<g>
		<path class="st0" d="M12.5,1c0.3,0,0.6,0.1,0.8,0.3h0l10.2,8.9c0.5,0.5,0.6,1.3,0.1,1.8c-0.2,0.2-0.4,0.2-0.7,0.2
			c-0.6,0-1.2-0.2-1.2-0.2v10.2c0,0.4-0.4,0.8-0.8,0.8h-5.6v-8.8H9.6V23H4c-0.4,0-0.8-0.4-0.8-0.8V12c0,0-0.7,0.2-1.2,0.2
			c-0.3,0-0.6-0.1-0.7-0.2c-0.4-0.5-0.4-1.4,0.1-1.8l10.2-8.9C11.9,1.1,12.2,1,12.5,1 M12.5,0c-0.5,0-1.1,0.2-1.5,0.5L0.8,9.4
			c-0.9,0.8-1.1,2.2-0.3,3.2c0.2,0.3,0.7,0.6,1.5,0.6c0.1,0,0.2,0,0.2,0v9C2.2,23.2,3,24,4,24h5.6c0.6,0,1-0.4,1-1v-7.8h3.7V23
			c0,0.6,0.4,1,1,1h5.6c1,0,1.8-0.8,1.8-1.8v-9c0.1,0,0.2,0,0.2,0c0.8,0,1.3-0.3,1.5-0.6c0.8-1,0.7-2.4-0.3-3.2L14,0.5
			c-0.1-0.1-0.1-0.1-0.2-0.1C13.4,0.1,12.9,0,12.5,0L12.5,0z"/>
	</g>
</g>
</svg>
