<?xml version="1.0" encoding="utf-8"?>
<!-- Generator: Adobe Illustrator 19.1.0, SVG Export Plug-In . SVG Version: 6.00 Build 0)  -->
<svg version="1.1" id="Layer_1" xmlns="http://www.w3.org/2000/svg" xmlns:xlink="http://www.w3.org/1999/xlink" x="0px" y="0px"
	 viewBox="682.9 564.1 224.9 208" style="enable-background:new 682.9 564.1 224.9 208;" xml:space="preserve">
<metadata><?xpacket begin="﻿" id="W5M0MpCehiHzreSzNTczkc9d"?>
<x:xmpmeta xmlns:x="adobe:ns:meta/" x:xmptk="Adobe XMP Core 5.6-c067 79.157747, 2015/03/30-23:40:42        ">
   <rdf:RDF xmlns:rdf="http://www.w3.org/1999/02/22-rdf-syntax-ns#">
      <rdf:Description rdf:about=""/>
   </rdf:RDF>
</x:xmpmeta>
                                                                                                    
                                                                                                    
                                                                                                    
                                                                                                    
                                                                                                    
                                                                                                    
                                                                                                    
                                                                                                    
                                                                                                    
                                                                                                    
                                                                                                    
                                                                                                    
                                                                                                    
                                                                                                    
                                                                                                    
                                                                                                    
                                                                                                    
                                                                                                    
                                                                                                    
                                                                                                    
                           
<?xpacket end="w"?></metadata>
<style type="text/css">
	.st0{fill:none;stroke:#F9580F;stroke-width:8.7956;stroke-linecap:round;stroke-linejoin:round;stroke-miterlimit:10;}
</style>
<g>
	<g>
		<path class="st0" d="M864,709"/>
		<path class="st0" d="M759.4,570.5c-4.6,1.2-9.2,2.9-13.5,5.1c-14.8,7.5-29.3,21.7-28.2,48.5c1.8,45.3-20.2,74.1-30.3,84.9"/>
		<path class="st0" d="M864,709"/>
		<path class="st0" d="M687.3,709"/>
		<path class="st0" d="M687.3,709c9,7.3,19.4,13.8,30,18.9"/>
		<path class="st0" d="M687.3,709"/>
	</g>
</g>
<g>
	<g>
		<path class="st0" d="M903.4,709"/>
		<path class="st0" d="M903.4,709c-10.1-10.8-32.1-39.6-30.3-84.9c1.1-26.8-13.4-41-28.2-48.5c-18.6-9.5-41-9.5-59.6,0
			c-14.8,7.5-29.3,21.7-28.3,48.5c1.8,45.3-20.2,74.1-30.3,84.9"/>
		<path class="st0" d="M726.7,709"/>
		<path class="st0" d="M903.4,709c-48.2,39.2-128.6,39.2-176.7,0"/>
		<path class="st0" d="M726.7,709"/>
		<path class="st0" d="M903.4,709"/>
	</g>
	<path class="st0" d="M802.2,752c0,8.7,8.9,15.7,19.9,15.7s19.9-7,19.9-15.7"/>
	<path class="st0" d="M750.2,752c0,8.7,8.9,15.7,19.9,15.7s19.9-7,19.9-15.7"/>
</g>
<path class="st0" d="M725.2,727.6"/>
</svg>
