<?xml version="1.0" encoding="utf-8"?>
<!-- Generator: Adobe Illustrator 19.1.0, SVG Export Plug-In . SVG Version: 6.00 Build 0)  -->
<svg version="1.1" id="Layer_1" xmlns="http://www.w3.org/2000/svg" xmlns:xlink="http://www.w3.org/1999/xlink" x="0px" y="0px"
	 viewBox="0 0 25 23" style="enable-background:new 0 0 25 23;" xml:space="preserve">
<metadata><?xpacket begin="﻿" id="W5M0MpCehiHzreSzNTczkc9d"?>
<x:xmpmeta xmlns:x="adobe:ns:meta/" x:xmptk="Adobe XMP Core 5.6-c067 79.157747, 2015/03/30-23:40:42        ">
   <rdf:RDF xmlns:rdf="http://www.w3.org/1999/02/22-rdf-syntax-ns#">
      <rdf:Description rdf:about=""/>
   </rdf:RDF>
</x:xmpmeta>
                                                                                                    
                                                                                                    
                                                                                                    
                                                                                                    
                                                                                                    
                                                                                                    
                                                                                                    
                                                                                                    
                                                                                                    
                                                                                                    
                                                                                                    
                                                                                                    
                                                                                                    
                                                                                                    
                                                                                                    
                                                                                                    
                                                                                                    
                                                                                                    
                                                                                                    
                                                                                                    
                           
<?xpacket end="w"?></metadata>
<style type="text/css">
	.st0{fill:none;stroke:#FFFFFF;stroke-width:0.9987;stroke-linecap:round;stroke-linejoin:round;stroke-miterlimit:10;}
</style>
<g>
	<path class="st0" d="M7,7.7c-1.1-0.5-2.3-1-2.4-1.4V6c0.2-0.3,0.4-0.6,0.5-1C5.4,4.7,5.5,4.3,5.2,4V3.2c0-0.9-0.4-1.5-1.4-1.5
		c-1,0-1.4,0.6-1.4,1.5V4C2.2,4.3,2.3,4.7,2.5,4.9C2.6,5.3,2.8,5.7,3,6v0.4C2.9,6.7,1.7,7.3,0.7,7.7C0.6,7.8,0.5,7.9,0.5,8v0.9
		c0,0.1,0.1,0.3,0.2,0.3h6.2c0.1,0,0.2-0.1,0.2-0.3V8C7.1,7.9,7.1,7.8,7,7.7z"/>
	<path class="st0" d="M16.1,21c-1.1-0.5-2.3-1-2.4-1.4v-0.4c0.2-0.3,0.4-0.6,0.5-1c0.2-0.2,0.3-0.6,0.1-0.9v-0.8
		c0-0.9-0.4-1.5-1.4-1.5c-1,0-1.4,0.6-1.4,1.5v0.8c-0.2,0.3-0.1,0.7,0.1,0.9c0.1,0.4,0.3,0.8,0.5,1v0.4C12,20,10.8,20.5,9.7,21
		c-0.1,0-0.2,0.1-0.2,0.3v0.9c0,0.1,0.1,0.3,0.2,0.3H16c0.1,0,0.2-0.1,0.2-0.3v-0.9C16.2,21.1,16.2,21,16.1,21z"/>
	<path class="st0" d="M24.3,7.7c-1.1-0.5-2.3-1-2.4-1.4V6c0.2-0.3,0.4-0.6,0.5-1c0.2-0.2,0.3-0.6,0.1-0.9V3.2c0-0.9-0.4-1.5-1.4-1.5
		c-1,0-1.4,0.6-1.4,1.5V4c-0.2,0.3-0.1,0.7,0.1,0.9c0.1,0.4,0.3,0.8,0.5,1v0.4C20.2,6.7,19,7.3,18,7.7c-0.1,0-0.2,0.1-0.2,0.3v0.9
		c0,0.1,0.1,0.3,0.2,0.3h6.2c0.1,0,0.2-0.1,0.2-0.3V8C24.5,7.9,24.4,7.8,24.3,7.7z"/>
	<path class="st0" d="M17.1,1.7c-1.3-0.8-2.8-1.2-4.5-1.2c-1.6,0-3.2,0.4-4.5,1.2"/>
	<path class="st0" d="M17.5,17.8c2.1-1.4,3.6-3.8,3.9-6.4C21.2,14,19.7,16.3,17.5,17.8"/>
	<path class="st0" d="M7.7,17.8c-2.1-1.4-3.6-3.8-3.9-6.4C4.1,14,5.5,16.3,7.7,17.8"/>
</g>
</svg>
